<svg width="32" height="32" viewBox="0 0 32 32" fill="none" xmlns="http://www.w3.org/2000/svg">
  <path d="M16 2C16 2 20 6 20 10C20 12 18 14 16 16C14 14 12 12 12 10C12 6 16 2 16 2Z" fill="#3B82F6"/>
  <path d="M16 16C16 16 20 20 20 24C20 26 18 28 16 30C14 28 12 26 12 24C12 20 16 16 16 16Z" fill="#10B981"/>
  <path d="M8 8C8 8 12 12 12 16C12 18 10 20 8 22C6 20 4 18 4 16C4 12 8 8 8 8Z" fill="#F59E0B"/>
  <path d="M24 8C24 8 28 12 28 16C28 18 26 20 24 22C22 20 20 18 20 16C20 12 24 8 24 8Z" fill="#EF4444"/>
  <circle cx="16" cy="8" r="2" fill="white"/>
  <circle cx="16" cy="24" r="2" fill="white"/>
  <circle cx="8" cy="16" r="2" fill="white"/>
  <circle cx="24" cy="16" r="2" fill="white"/>
</svg>
